<?xml version="1.0" standalone="no"?>
<!DOCTYPE svg PUBLIC "-//W3C//DTD SVG 20010904//EN"
 "http://www.w3.org/TR/2001/REC-SVG-20010904/DTD/svg10.dtd">
<svg version="1.0" xmlns="http://www.w3.org/2000/svg"
 width="512.000000pt" height="512.000000pt" viewBox="0 0 512.000000 512.000000"
 preserveAspectRatio="xMidYMid meet">
<metadata>
Created by potrace 1.11, written by Peter Selinger 2001-2013
</metadata>
<g transform="translate(0.000000,512.000000) scale(0.100000,-0.100000)"
fill="#000000" stroke="none">
<path d="M1118 5105 c-58 -21 -87 -45 -116 -94 l-27 -46 0 -2395 0 -2395 22
-40 c25 -47 64 -86 113 -111 45 -24 152 -24 196 -1 23 12 1035 707 1234 847
l25 18 600 -415 c330 -228 620 -426 644 -441 65 -38 158 -38 224 1 55 33 92
83 106 147 7 30 11 829 11 2401 0 2602 5 2411 -63 2477 -68 66 25 62 -1526 61
-1151 0 -1413 -3 -1443 -14z m1278 -1148 c48 -24 110 -83 133 -126 6 -11 18
-44 25 -73 9 -32 15 -43 15 -28 1 41 55 143 95 178 69 61 112 77 206 77 69 0
94 -4 131 -23 153 -75 216 -254 146 -420 -81 -195 -348 -429 -538 -471 -179
-40 -548 248 -635 496 -24 71 -22 176 5 238 34 78 97 135 186 172 50 21 171
11 231 -20z"/>
</g>
</svg>
